<?xml version="1.0" encoding="UTF-8" standalone="no"?>
<!-- Created with Inkscape (http://www.inkscape.org/) -->

<svg
   width="33.872368mm"
   height="33.85078mm"
   viewBox="0 0 33.872368 33.85078"
   version="1.1"
   id="svg1"
   xml:space="preserve"
   inkscape:version="1.3.2 (091e20e, 2023-11-25, custom)"
   sodipodi:docname="favicon.svg"
   xmlns:inkscape="http://www.inkscape.org/namespaces/inkscape"
   xmlns:sodipodi="http://sodipodi.sourceforge.net/DTD/sodipodi-0.dtd"
   xmlns="http://www.w3.org/2000/svg"
   xmlns:svg="http://www.w3.org/2000/svg"><sodipodi:namedview
     id="namedview1"
     pagecolor="#ffffff"
     bordercolor="#000000"
     borderopacity="0.25"
     inkscape:showpageshadow="2"
     inkscape:pageopacity="0.0"
     inkscape:pagecheckerboard="0"
     inkscape:deskcolor="#d1d1d1"
     inkscape:document-units="mm"
     inkscape:zoom="2.0686841"
     inkscape:cx="71.543065"
     inkscape:cy="50.031805"
     inkscape:window-width="1920"
     inkscape:window-height="1017"
     inkscape:window-x="1912"
     inkscape:window-y="-8"
     inkscape:window-maximized="1"
     inkscape:current-layer="layer1" /><defs
     id="defs1" /><g
     inkscape:label="Layer 1"
     inkscape:groupmode="layer"
     id="layer1"
     transform="translate(-88.064942,-131.57464)"><path
       id="background-circle"
       fill="none"
       stroke="#000000"
       stroke-width="1"
       d="m 103.81873,131.57475 c 0,0 1.77799,0 1.77799,0 1.81102,-0.009 4.07839,0.53001 5.75732,1.20141 1.72381,0.68919 3.43069,1.72974 4.82599,2.95402 5.87077,5.14772 7.39138,13.53139 3.91582,20.46472 -0.74845,1.49267 -1.71957,2.8812 -2.89982,4.06399 -1.39446,1.39615 -2.63144,2.38929 -4.40266,3.28083 -2.83971,1.43001 -5.30605,1.92023 -8.46664,1.88383 -1.38261,-0.0161 -3.34094,-0.41148 -4.656662,-0.84667 -2.12089,-0.70103 -4.16136,-1.8525 -5.84198,-3.32654 -5.54311,-4.8607 -7.30672,-12.8837 -4.32984,-19.61807 1.85843,-4.20284 5.41441,-7.54208 9.74849,-9.08555 0.963502,-0.3429 2.120052,-0.65278 3.132662,-0.79671 z"
       style="fill:#ffffff;fill-opacity:1;stroke:none" /><path
       id="p-letter"
       fill="none"
       stroke="#000000"
       stroke-width="1"
       d="m 99.914304,138.4163 c 0,0 2.539996,0 2.539996,0 0,0 4.23332,0 4.23332,0 0.60452,-0.004 1.54432,0.18627 2.11666,0.38524 4.1241,1.43933 5.36362,6.39316 2.92607,9.84756 -1.23189,1.74582 -3.3367,2.7906 -5.46606,2.79399 0,0 -2.11666,0 -2.11666,0 -0.63754,8.5e-4 -1.60105,0.0601 -2.10143,0.48344 -0.6333,0.53594 -0.69172,1.86267 -0.69257,2.64922 -0.002,1.09643 0.22183,2.54422 -0.60113,3.37904 -0.825496,0.8365 -2.401986,0.81449 -3.180916,-0.0804 -0.4555,-0.52324 -0.53509,-1.10998 -0.53594,-1.77461 0,0 0,-14.6473 0,-14.6473 0.004,-0.91863 0.14563,-2.07602 1.016,-2.57979 0.58759,-0.33951 1.22004,-0.34036 1.86266,-0.45635 z m 1.439326,9.7248 c 0.75438,-0.17188 0.57997,-0.25231 1.43933,-0.254 1.61036,-0.003 3.60849,0.23791 4.99532,-0.6858 1.64338,-1.09559 1.61713,-3.51451 0,-4.61771 -1.18109,-0.80603 -2.45363,-0.72305 -3.80999,-0.70781 -0.70442,0.008 -1.76699,0.0669 -2.20217,0.69172 -0.32597,0.46905 -0.32512,1.37329 -0.33867,1.93294 0,0 -0.0838,1.10066 -0.0838,1.10066 z"
       style="fill:#0056ff;fill-opacity:1;stroke:none"
       inkscape:highlight-color="#1400ee" /></g></svg>
